<svg width="40" height="40" viewBox="0 0 40 40" fill="none" xmlns="http://www.w3.org/2000/svg">
<g clip-path="url(#clip0_47_4)">
<path d="M39.241 12.4769L20.9598 0.289369C20.3358 -0.0946152 19.6698 -0.0981308 19.0402 0.289369L0.758906 12.4769C0.290156 12.7893 0 13.3474 0 13.9054V26.0928C0 26.6509 0.290156 27.2089 0.758984 27.5214L19.0402 39.7106C19.6642 40.0946 20.3302 40.0981 20.9598 39.7106L39.2411 27.5214C39.7098 27.209 40.0001 26.6509 40.0001 26.0928V13.9054C40 13.3474 39.7098 12.7893 39.241 12.4769V12.4769ZM21.7188 4.9321L35.1786 13.9054L29.1741 17.9233L21.7188 12.9455V4.9321ZM18.2812 4.9321V12.9455L10.8259 17.9233L4.82141 13.9054L18.2812 4.9321ZM3.4375 17.1197L7.74555 19.9991L3.4375 22.8786V17.1197ZM18.2812 35.0662L4.82141 26.0929L10.8259 22.075L18.2812 27.0527V35.0662ZM20 24.0616L13.9285 19.9991L20 15.9366L26.0715 19.9991L20 24.0616ZM21.7188 35.0662V27.0527L29.1741 22.075L35.1786 26.0929L21.7188 35.0662ZM36.5625 22.8786L32.2545 19.9991L36.5625 17.1197V22.8786Z" fill="white"/>
</g>
<defs>
<clipPath id="clip0_47_4">
<rect width="40" height="40" fill="white"/>
</clipPath>
</defs>
</svg>
