<svg width="40" height="40" viewBox="0 0 40 40" fill="none" xmlns="http://www.w3.org/2000/svg">
<g clip-path="url(#clip0_2101_9)">
<path fill-rule="evenodd" clip-rule="evenodd" d="M20 39.8339C16.0166 39.8339 12.1992 38.6721 8.87968 36.5144C5.56018 34.3568 3.07055 31.2032 1.49379 27.5518C1.40638e-05 23.9003 -0.414924 19.9169 0.414952 16.0165C1.16184 12.1991 3.07055 8.63062 5.89213 5.80905C8.71371 2.98747 12.2822 1.16174 16.0996 0.331868C20 -0.41502 23.9834 -0.0830699 27.6349 1.49369C31.2863 2.98747 34.4398 5.56008 36.5975 8.7966C38.7552 12.0331 40 15.9335 40 19.8339C40 25.1451 37.9253 30.2074 34.1079 33.9418C30.3735 37.7593 25.3112 39.8339 20 39.8339ZM20.166 31.8671C28.4647 31.8671 35.1867 24.9792 35.1867 16.5974C35.1867 8.1327 28.4647 1.32772 20.166 1.32772C11.8672 1.24473 5.14524 8.1327 5.14524 16.5974C5.14524 24.9792 11.8672 31.8671 20.166 31.8671ZM20 28.3817C12.4481 28.3817 6.30707 22.4066 6.30707 15.1037C6.30707 7.80075 12.4481 1.90863 20 1.90863C27.5519 1.90863 33.693 7.80075 33.693 15.1037C33.693 22.4066 27.5519 28.3817 20 28.3817ZM19.7511 22.9045C25.4772 22.9045 30.1245 18.5061 30.1245 13.029C30.1245 7.55178 25.4772 3.15344 19.7511 3.15344C14.0249 3.15344 9.37761 7.55178 9.37761 13.029C9.37761 18.5061 14.0249 22.9045 19.7511 22.9045ZM19.834 20.9958C15.3527 20.9958 11.7013 17.1783 11.7013 12.3651C11.7013 7.63477 15.3527 3.73436 19.834 3.73436C24.3154 3.73436 27.9668 7.55178 27.9668 12.3651C27.9668 17.1783 24.3154 20.9958 19.834 20.9958ZM19.7511 13.4439C20.6639 13.4439 21.4938 13.1949 22.2407 12.697C22.9876 12.1991 23.5685 11.5352 23.9004 10.7053C24.5643 9.04556 24.2324 7.13685 22.9046 5.89203C21.6598 4.64722 19.7511 4.23228 18.0913 4.89618C17.2614 5.22813 16.5975 5.80905 16.0996 6.55593C15.6017 7.30282 15.3527 8.1327 15.3527 8.96257C15.3527 10.1244 15.8506 11.2862 16.6805 12.0331C17.4274 13.029 18.5062 13.4439 19.7511 13.4439Z" fill="white"/>
<path fill-rule="evenodd" clip-rule="evenodd" d="M20 39.8339C16.0166 39.8339 12.1992 38.6721 8.87968 36.5144C5.56018 34.3568 3.07055 31.2032 1.49379 27.5518C1.40638e-05 23.9003 -0.414924 19.9169 0.414952 16.0165C1.16184 12.1991 3.07055 8.63062 5.89213 5.80905C8.71371 2.98747 12.2822 1.16174 16.0996 0.331868C20 -0.41502 23.9834 -0.0830699 27.6349 1.49369C31.2863 2.98747 34.4398 5.56008 36.5975 8.7966C38.7552 12.0331 40 15.9335 40 19.8339C40 25.1451 37.9253 30.2074 34.1079 33.9418C30.3735 37.7593 25.3112 39.8339 20 39.8339ZM20.166 31.8671C28.4647 31.8671 35.1867 24.9792 35.1867 16.5974C35.1867 8.1327 28.4647 1.32772 20.166 1.32772C11.8672 1.24473 5.14524 8.1327 5.14524 16.5974C5.14524 24.9792 11.8672 31.8671 20.166 31.8671ZM20 28.3817C12.4481 28.3817 6.30707 22.4066 6.30707 15.1037C6.30707 7.80075 12.4481 1.90863 20 1.90863C27.5519 1.90863 33.693 7.80075 33.693 15.1037C33.693 22.4066 27.5519 28.3817 20 28.3817ZM19.7511 22.9045C25.4772 22.9045 30.1245 18.5061 30.1245 13.029C30.1245 7.55178 25.4772 3.15344 19.7511 3.15344C14.0249 3.15344 9.37761 7.55178 9.37761 13.029C9.37761 18.5061 14.0249 22.9045 19.7511 22.9045Z" fill="white"/>
<path fill-rule="evenodd" clip-rule="evenodd" d="M20 39.8339C16.0166 39.8339 12.1992 38.6721 8.87968 36.5144C5.56018 34.3568 3.07055 31.2032 1.49379 27.5518C1.40638e-05 23.9003 -0.414924 19.9169 0.414952 16.0165C1.16184 12.1991 3.07055 8.63062 5.89213 5.80905C8.71371 2.98747 12.2822 1.16174 16.0996 0.331868C20 -0.41502 23.9834 -0.0830699 27.6349 1.49369C31.2863 2.98747 34.4398 5.56008 36.5975 8.7966C38.7552 12.0331 40 15.9335 40 19.8339C40 25.1451 37.9253 30.2074 34.1079 33.9418C30.3735 37.7593 25.3112 39.8339 20 39.8339ZM20.166 31.8671C28.4647 31.8671 35.1867 24.9792 35.1867 16.5974C35.1867 8.1327 28.4647 1.32772 20.166 1.32772C11.8672 1.24473 5.14524 8.1327 5.14524 16.5974C5.14524 24.9792 11.8672 31.8671 20.166 31.8671Z" fill="white"/>
</g>
<defs>
<clipPath id="clip0_2101_9">
<rect width="40" height="39.834" fill="white"/>
</clipPath>
</defs>
</svg>
