<svg width="40" height="40" viewBox="0 0 40 40" fill="none" xmlns="http://www.w3.org/2000/svg">
<g clip-path="url(#clip0_47_2)">
<path d="M20 0.625C9.31656 0.625 0.625 9.31656 0.625 20C0.625 30.6834 9.31656 39.375 20 39.375C30.6834 39.375 39.375 30.6834 39.375 20C39.375 9.31656 30.6834 0.625 20 0.625ZM32.8102 9.55984C35.1151 12.3759 36.5109 15.9627 36.5473 19.8688C36.0016 19.7534 30.5302 18.6437 25.0237 19.3362C24.5743 18.2392 24.1502 17.2742 23.5692 16.0851C29.688 13.5869 32.4613 10.0318 32.8102 9.55984V9.55984ZM30.9704 7.64609C30.6727 8.07008 28.1816 11.4184 22.2969 13.6241C19.585 8.64164 16.5793 4.54852 16.1219 3.93602C21.37 2.67094 26.9005 4.03523 30.9704 7.64609V7.64609ZM12.9641 5.04844C13.4005 5.6468 16.3577 9.745 19.0998 14.6195C11.3587 16.6752 4.54047 16.6455 3.80031 16.6358C4.87344 11.5004 8.33422 7.23227 12.9641 5.04844ZM3.45078 20.0252C3.45078 19.856 3.45414 19.6876 3.45922 19.5195C4.18328 19.5344 12.203 19.6377 20.4675 17.1644C20.9413 18.0916 21.3938 19.0327 21.8092 19.9729C15.8249 21.6584 10.3878 26.4984 7.70523 31.0905C5.06203 28.1566 3.45078 24.2758 3.45078 20.0252ZM9.84195 33.0809C11.5706 29.5471 16.2621 24.9855 22.9341 22.7094C25.2575 28.7471 26.2184 33.8073 26.4645 35.2592C21.1432 37.5259 14.7445 36.904 9.84195 33.0809V33.0809ZM29.2466 33.7441C29.077 32.7374 28.1962 27.8928 26.0316 21.9447C31.2176 21.1145 35.7738 22.4734 36.34 22.6521C35.6023 27.2569 32.9593 31.2337 29.2466 33.7441Z" fill="white"/>
</g>
<defs>
<clipPath id="clip0_47_2">
<rect width="40" height="40" fill="white"/>
</clipPath>
</defs>
</svg>
