<svg width="39" height="40" viewBox="0 0 39 40" fill="none" xmlns="http://www.w3.org/2000/svg">
<g clip-path="url(#clip0_47_6)">
<path d="M12.9619 31.0469C12.9619 31.2031 12.7822 31.3281 12.5557 31.3281C12.2979 31.3516 12.1182 31.2266 12.1182 31.0469C12.1182 30.8906 12.2979 30.7656 12.5244 30.7656C12.7588 30.7422 12.9619 30.8672 12.9619 31.0469ZM10.5322 30.6953C10.4775 30.8516 10.6338 31.0312 10.8682 31.0781C11.0713 31.1562 11.3057 31.0781 11.3525 30.9219C11.3994 30.7656 11.251 30.5859 11.0166 30.5156C10.8135 30.4609 10.5869 30.5391 10.5322 30.6953ZM13.9854 30.5625C13.7588 30.6172 13.6025 30.7656 13.626 30.9453C13.6494 31.1016 13.8525 31.2031 14.0869 31.1484C14.3135 31.0938 14.4697 30.9453 14.4463 30.7891C14.4229 30.6406 14.2119 30.5391 13.9854 30.5625ZM19.126 0.625C8.29004 0.625 0.000976562 8.85156 0.000976562 19.6875C0.000976562 28.3516 5.4541 35.7656 13.2432 38.375C14.2432 38.5547 14.5947 37.9375 14.5947 37.4297C14.5947 36.9453 14.5713 34.2734 14.5713 32.6328C14.5713 32.6328 9.10254 33.8047 7.9541 30.3047C7.9541 30.3047 7.06348 28.0312 5.78223 27.4453C5.78223 27.4453 3.99316 26.2187 5.90723 26.2422C5.90723 26.2422 7.85254 26.3984 8.92285 28.2578C10.6338 31.2734 13.501 30.4063 14.6182 29.8906C14.7979 28.6406 15.3057 27.7734 15.8682 27.2578C11.501 26.7734 7.09473 26.1406 7.09473 18.625C7.09473 16.4766 7.68848 15.3984 8.93848 14.0234C8.73535 13.5156 8.07129 11.4219 9.1416 8.71875C10.7744 8.21094 14.5322 10.8281 14.5322 10.8281C16.0947 10.3906 17.7744 10.1641 19.4385 10.1641C21.1025 10.1641 22.7822 10.3906 24.3447 10.8281C24.3447 10.8281 28.1025 8.20312 29.7354 8.71875C30.8057 11.4297 30.1416 13.5156 29.9385 14.0234C31.1885 15.4063 31.9541 16.4844 31.9541 18.625C31.9541 26.1641 27.3525 26.7656 22.9854 27.2578C23.7041 27.875 24.3135 29.0469 24.3135 30.8828C24.3135 33.5156 24.29 36.7734 24.29 37.4141C24.29 37.9219 24.6494 38.5391 25.6416 38.3594C33.4541 35.7656 38.751 28.3516 38.751 19.6875C38.751 8.85156 29.9619 0.625 19.126 0.625ZM7.59473 27.5703C7.49316 27.6484 7.5166 27.8281 7.64941 27.9766C7.77441 28.1016 7.9541 28.1563 8.05566 28.0547C8.15723 27.9766 8.13379 27.7969 8.00098 27.6484C7.87598 27.5234 7.69629 27.4687 7.59473 27.5703ZM6.75098 26.9375C6.69629 27.0391 6.77441 27.1641 6.93066 27.2422C7.05566 27.3203 7.21191 27.2969 7.2666 27.1875C7.32129 27.0859 7.24316 26.9609 7.08691 26.8828C6.93066 26.8359 6.80566 26.8594 6.75098 26.9375ZM9.28223 29.7187C9.15723 29.8203 9.2041 30.0547 9.38379 30.2031C9.56348 30.3828 9.79004 30.4063 9.8916 30.2813C9.99316 30.1797 9.94629 29.9453 9.79004 29.7969C9.61816 29.6172 9.38379 29.5937 9.28223 29.7187ZM8.3916 28.5703C8.2666 28.6484 8.2666 28.8516 8.3916 29.0313C8.5166 29.2109 8.72754 29.2891 8.8291 29.2109C8.9541 29.1094 8.9541 28.9063 8.8291 28.7266C8.71973 28.5469 8.5166 28.4688 8.3916 28.5703Z" fill="white"/>
</g>
<defs>
<clipPath id="clip0_47_6">
<rect width="38.7524" height="40" fill="white"/>
</clipPath>
</defs>
</svg>
