<svg width="40" height="40" viewBox="0 0 40 40" fill="none" xmlns="http://www.w3.org/2000/svg">
<g clip-path="url(#clip0_101_8)">
<path d="M26.6021 12.8779L30.0792 9.40087L30.3109 7.9368C23.9748 2.1754 13.9028 2.82868 8.19105 9.29993C6.60449 11.0973 5.42746 13.3381 4.7998 15.652L6.04512 15.4765L12.999 14.3298L13.5359 13.7807C16.6292 10.3835 21.8593 9.92649 25.4309 12.817L26.6021 12.8779Z" fill="white"/>
<path d="M35.0323 15.5497C34.2331 12.6066 32.5923 9.9608 30.3109 7.93689L25.4309 12.8169C27.4916 14.5006 28.6655 17.0372 28.6152 19.6977V20.5639C31.0137 20.5639 32.9584 22.5085 32.9584 24.907C32.9584 27.3058 31.0137 29.2016 28.6152 29.2016H19.9166L19.0625 30.1288V35.3381L19.9166 36.1555H28.6152C34.8542 36.2041 39.9514 31.2345 40 24.9955C40.0294 21.2138 38.1648 17.6685 35.0323 15.5497Z" fill="white"/>
<path d="M11.23 36.1556H19.9164V29.2015H11.23C10.6111 29.2014 10.0117 29.0684 9.44891 28.8112L8.21656 29.1893L4.71516 32.6664L4.41016 33.8498C6.37375 35.3325 8.76953 36.1662 11.23 36.1556Z" fill="white"/>
<path d="M11.2297 13.5977C4.99052 13.6349 -0.0369825 18.723 0.000204978 24.9621C0.0209862 28.4462 1.64817 31.7259 4.40989 33.8498L9.44864 28.8112C7.26255 27.8235 6.29114 25.2509 7.2788 23.0649C8.2663 20.879 10.8391 19.9076 13.0249 20.8951C13.9882 21.3302 14.7596 22.1018 15.1947 23.0649L20.2335 18.0263C18.0896 15.2237 14.7583 13.5851 11.2297 13.5977Z" fill="white"/>
</g>
<defs>
<clipPath id="clip0_101_8">
<rect width="40" height="32.1875" fill="white" transform="translate(0 4)"/>
</clipPath>
</defs>
</svg>
