<svg width="36" height="40" viewBox="0 0 36 40" fill="none" xmlns="http://www.w3.org/2000/svg">
<g clip-path="url(#clip0_47_8)">
<path d="M33.1904 2.5H3.18262C1.80762 2.5 0.69043 3.63281 0.69043 5.02344V34.9766C0.69043 36.3672 1.80762 37.5 3.18262 37.5H33.1904C34.5654 37.5 35.6904 36.3672 35.6904 34.9766V5.02344C35.6904 3.63281 34.5654 2.5 33.1904 2.5ZM11.2686 32.5H6.08105V15.7969H11.2764V32.5H11.2686ZM8.6748 13.5156C7.01074 13.5156 5.66699 12.1641 5.66699 10.5078C5.66699 8.85156 7.01074 7.5 8.6748 7.5C10.3311 7.5 11.6826 8.85156 11.6826 10.5078C11.6826 12.1719 10.3389 13.5156 8.6748 13.5156V13.5156ZM30.7139 32.5H25.5264V24.375C25.5264 22.4375 25.4873 19.9453 22.8311 19.9453C20.1279 19.9453 19.7139 22.0547 19.7139 24.2344V32.5H14.5264V15.7969H19.5029V18.0781H19.5732C20.2686 16.7656 21.9639 15.3828 24.4873 15.3828C29.7373 15.3828 30.7139 18.8437 30.7139 23.3437V32.5V32.5Z" fill="white"/>
</g>
<defs>
<clipPath id="clip0_47_8">
<rect width="35" height="40" fill="white" transform="translate(0.69043)"/>
</clipPath>
</defs>
</svg>
