<svg width="41" height="40" viewBox="0 0 41 40" fill="none" xmlns="http://www.w3.org/2000/svg">
<g clip-path="url(#clip0_47_10)">
<path d="M36.3287 11.8528C36.3541 12.2081 36.3541 12.5635 36.3541 12.9188C36.3541 23.7563 28.1054 36.2437 13.0293 36.2437C8.38457 36.2437 4.06988 34.8984 0.44043 32.5635C1.10035 32.6396 1.7348 32.665 2.42012 32.665C6.25254 32.665 9.78051 31.3706 12.5978 29.1625C8.99371 29.0863 5.9734 26.7259 4.93277 23.4772C5.44043 23.5533 5.94801 23.6041 6.48105 23.6041C7.21707 23.6041 7.95316 23.5025 8.6384 23.3249C4.88207 22.5634 2.06473 19.264 2.06473 15.2792V15.1777C3.15605 15.7869 4.4252 16.1676 5.77027 16.2183C3.56215 14.7462 2.11551 12.2335 2.11551 9.39086C2.11551 7.86805 2.52152 6.47211 3.23223 5.25383C7.26777 10.2284 13.3338 13.4771 20.1357 13.8325C20.0089 13.2234 19.9327 12.5889 19.9327 11.9544C19.9327 7.43657 23.5875 3.75641 28.1307 3.75641C30.4911 3.75641 32.623 4.74625 34.1205 6.34524C35.9732 5.98992 37.7499 5.30461 39.3236 4.36555C38.7143 6.26914 37.42 7.86813 35.7195 8.88328C37.3693 8.70571 38.9682 8.24875 40.4403 7.6143C39.3237 9.2386 37.9277 10.6852 36.3287 11.8528V11.8528Z" fill="white"/>
</g>
<defs>
<clipPath id="clip0_47_10">
<rect width="40" height="40" fill="white" transform="translate(0.44043)"/>
</clipPath>
</defs>
</svg>
